<svg width="28" height="24" viewBox="0 0 28 24" fill="none" xmlns="http://www.w3.org/2000/svg">
<path fill-rule="evenodd" clip-rule="evenodd" d="M0.117652 11.8529C0.114186 11.5117 0.212201 11.1835 0.390137 10.9404C0.568072 10.6974 0.811352 10.5593 1.06646 10.5567L23.7533 10.3262L17.617 2.2937C17.4339 2.05399 17.3291 1.72741 17.3256 1.3858C17.3222 1.04419 17.4203 0.715547 17.5985 0.472161C17.7766 0.228774 18.0202 0.0905825 18.2756 0.0879872C18.5311 0.0853918 18.7774 0.218606 18.9605 0.458322L26.7601 10.6713C26.8508 10.7899 26.9234 10.9312 26.9734 11.087C27.0235 11.2428 27.0502 11.41 27.0519 11.5792C27.0536 11.7485 27.0304 11.9163 26.9835 12.073C26.9366 12.2298 26.8669 12.3725 26.7786 12.4929L19.1881 22.8623C19.01 23.1057 18.7664 23.2439 18.5109 23.2465C18.2555 23.2491 18.0092 23.1158 17.8261 22.8761C17.643 22.6364 17.5382 22.3098 17.5348 21.9682C17.5313 21.6266 17.6294 21.298 17.8076 21.0546L23.7794 12.899L1.0926 13.1295C0.837494 13.1321 0.591459 12.9991 0.408622 12.7597C0.225784 12.5203 0.121119 12.1941 0.117652 11.8529Z" fill="white"/>
</svg>
